<?xml version="1.0" standalone="no"?>
<!DOCTYPE svg PUBLIC "-//W3C//DTD SVG 20010904//EN"
 "http://www.w3.org/TR/2001/REC-SVG-20010904/DTD/svg10.dtd">
<svg version="1.0" xmlns="http://www.w3.org/2000/svg"
 width="36.000000pt" height="38.000000pt" viewBox="0 0 36.000000 38.000000"
 preserveAspectRatio="xMidYMid meet">

<g transform="translate(0.000000,38.000000) scale(0.100000,-0.100000)"
fill="#000000" stroke="none">
<path d="M79 310 c-22 -22 -35 -40 -29 -40 6 0 10 -33 10 -85 l0 -85 55 0 55
0 0 85 c0 74 2 85 18 86 9 0 2 5 -15 10 -18 5 -33 14 -33 21 0 7 5 6 15 -2 20
-17 45 -5 45 20 0 25 -25 37 -45 20 -10 -9 -15 -9 -15 -1 0 21 -22 11 -61 -29z"/>
<path d="M229 334 c-11 -14 -10 -18 6 -30 10 -8 25 -14 33 -14 22 0 52 20 52
34 0 28 -69 36 -91 10z"/>
<path d="M220 190 l0 -90 50 0 50 0 0 90 0 90 -50 0 -50 0 0 -90z"/>
</g>
</svg>
