<svg width="138" height="46" viewBox="0 0 138 46" fill="none" xmlns="http://www.w3.org/2000/svg">
<g filter="url(#filter0_d_341_191)">
<rect y="4" width="78" height="38" fill="url(#paint0_linear_341_191)"/>
</g>
<path d="M34.5156 14.9062V13.8281H36.8438C37.0417 12.6823 37.3229 11.7865 37.6875 11.1406C38.125 10.3073 38.6562 9.63542 39.2812 9.125C40.7188 7.84375 42.5208 7.20312 44.6875 7.20312H45.0469C44.5781 7.55729 44.2292 7.97396 44 8.45312C43.7708 8.91146 43.6562 9.45312 43.6562 10.0781C43.6562 10.8073 43.8333 11.4583 44.1875 12.0312C44.5312 12.6042 45.0208 13.0469 45.6562 13.3594C46.3021 13.6719 47.0156 13.8281 47.7969 13.8281H50.4219V14.9375H46.6094V32H36.7812V14.9062H34.5156ZM47.4375 7.20312C48.2396 7.20312 48.9271 7.48438 49.5 8.04688C50.0729 8.60938 50.3594 9.29688 50.3594 10.1094C50.3594 10.901 50.0729 11.5781 49.5 12.1406C48.9271 12.7031 48.2396 12.9844 47.4375 12.9844C46.625 12.9844 45.9479 12.6979 45.4062 12.125C44.8438 11.5625 44.5625 10.8906 44.5625 10.1094C44.5625 9.30729 44.8438 8.61979 45.4062 8.04688C45.9583 7.48438 46.6354 7.20312 47.4375 7.20312ZM57.0625 7.20312C58.6562 7.20312 59.9271 7.45312 60.875 7.95312C61.8333 8.45312 62.3125 9.11979 62.3125 9.95312C62.3125 10.4427 62.099 10.8854 61.6719 11.2812C61.2448 11.6771 60.6562 11.9844 59.9062 12.2031C59.1771 12.4323 58.3281 12.5469 57.3594 12.5469C55.8698 12.5469 54.6823 12.3073 53.7969 11.8281C52.901 11.3385 52.4531 10.6823 52.4531 9.85938C52.4531 9.07812 52.875 8.4375 53.7188 7.9375C54.5729 7.44792 55.6875 7.20312 57.0625 7.20312ZM52.5156 32V13.9219H62.4062V32H52.5156ZM99.4531 32H89.5938V20.7344C89.5938 19.4219 89.3281 18.1979 88.7969 17.0625C88.5677 16.5312 88.3438 16.125 88.125 15.8438C87.8958 15.5417 87.5677 15.1979 87.1406 14.8125C87.7031 14.5104 88.3021 14.2917 88.9375 14.1562C89.6458 14 90.4323 13.9219 91.2969 13.9219C96.7344 13.9219 99.4531 16.2552 99.4531 20.9219V32ZM77.7656 32V13.9219H78.625C80.1667 13.9219 81.5625 14.1042 82.8125 14.4688C84.0208 14.8229 84.974 15.3438 85.6719 16.0312C86.099 16.4583 86.4427 16.9531 86.7031 17.5156C86.974 18.1094 87.1719 18.7708 87.2969 19.5C87.4219 20.25 87.4844 21.099 87.4844 22.0469V32H77.7656ZM65.9219 32V13.9219H75.6875V32H65.9219ZM136.453 32H126.594V20.7344C126.594 19.4219 126.328 18.1979 125.797 17.0625C125.568 16.5312 125.344 16.125 125.125 15.8438C124.896 15.5417 124.568 15.1979 124.141 14.8125C124.703 14.5104 125.302 14.2917 125.938 14.1562C126.646 14 127.432 13.9219 128.297 13.9219C133.734 13.9219 136.453 16.2552 136.453 20.9219V32ZM114.766 32V13.9219H115.625C117.167 13.9219 118.562 14.1042 119.812 14.4688C121.021 14.8229 121.974 15.3438 122.672 16.0312C123.099 16.4583 123.443 16.9531 123.703 17.5156C123.974 18.1094 124.172 18.7708 124.297 19.5C124.422 20.25 124.484 21.099 124.484 22.0469V32H114.766ZM102.922 32V13.9219H112.688V32H102.922Z" fill="black"/>
<defs>
<filter id="filter0_d_341_191" x="0" y="0" width="88" height="46" filterUnits="userSpaceOnUse" color-interpolation-filters="sRGB">
<feFlood flood-opacity="0" result="BackgroundImageFix"/>
<feColorMatrix in="SourceAlpha" type="matrix" values="0 0 0 0 0 0 0 0 0 0 0 0 0 0 0 0 0 0 127 0" result="hardAlpha"/>
<feOffset dx="6"/>
<feGaussianBlur stdDeviation="2"/>
<feComposite in2="hardAlpha" operator="out"/>
<feColorMatrix type="matrix" values="0 0 0 0 0 0 0 0 0 0 0 0 0 0 0 0 0 0 0.25 0"/>
<feBlend mode="normal" in2="BackgroundImageFix" result="effect1_dropShadow_341_191"/>
<feBlend mode="normal" in="SourceGraphic" in2="effect1_dropShadow_341_191" result="shape"/>
</filter>
<linearGradient id="paint0_linear_341_191" x1="0" y1="23" x2="78" y2="23" gradientUnits="userSpaceOnUse">
<stop stop-color="#FFCD00"/>
<stop offset="1" stop-color="#FFCD00"/>
</linearGradient>
</defs>
</svg>
